<mxfile host="65bd71144e">
    <diagram name="Página-1" id="PIoL_EBg3AFL8SvnObjP">
        <mxGraphModel dx="1957" dy="1956" grid="1" gridSize="10" guides="1" tooltips="1" connect="1" arrows="1" fold="1" page="1" pageScale="1" pageWidth="827" pageHeight="1169" math="0" shadow="0">
            <root>
                <mxCell id="0"/>
                <mxCell id="1" parent="0"/>
                <mxCell id="3Jfq89YbCW_ejPzD94Lu-1" value="" style="rounded=0;whiteSpace=wrap;html=1;" parent="1" vertex="1">
                    <mxGeometry x="-350" y="-20" width="960" height="1930" as="geometry"/>
                </mxCell>
                <mxCell id="3Jfq89YbCW_ejPzD94Lu-3" value="" style="ellipse;whiteSpace=wrap;html=1;aspect=fixed;" parent="1" vertex="1">
                    <mxGeometry x="50" y="90" width="160" height="160" as="geometry"/>
                </mxCell>
                <mxCell id="3Jfq89YbCW_ejPzD94Lu-4" value="MINHA FOTO" style="text;html=1;align=center;verticalAlign=middle;whiteSpace=wrap;rounded=0;" parent="1" vertex="1">
                    <mxGeometry x="100" y="155" width="60" height="30" as="geometry"/>
                </mxCell>
                <mxCell id="3Jfq89YbCW_ejPzD94Lu-5" value="" style="line;strokeWidth=2;html=1;" parent="1" vertex="1">
                    <mxGeometry x="-350" y="250" width="960" height="10" as="geometry"/>
                </mxCell>
                <mxCell id="3Jfq89YbCW_ejPzD94Lu-10" value="MEU NOME" style="text;strokeColor=none;fillColor=none;html=1;fontSize=24;fontStyle=1;verticalAlign=middle;align=center;" parent="1" vertex="1">
                    <mxGeometry x="60" y="10" width="140" height="50" as="geometry"/>
                </mxCell>
                <mxCell id="3Jfq89YbCW_ejPzD94Lu-11" value="Quem sou eu?" style="text;strokeColor=none;fillColor=none;html=1;fontSize=24;fontStyle=1;verticalAlign=middle;align=center;" parent="1" vertex="1">
                    <mxGeometry x="-347.5" y="260" width="180" height="60" as="geometry"/>
                </mxCell>
                <mxCell id="3Jfq89YbCW_ejPzD94Lu-12" value="Texto" style="text;html=1;align=center;verticalAlign=middle;whiteSpace=wrap;rounded=0;" parent="1" vertex="1">
                    <mxGeometry x="-420" y="270" width="210" height="130" as="geometry"/>
                </mxCell>
                <mxCell id="3Jfq89YbCW_ejPzD94Lu-13" value="Sobre mim" style="text;strokeColor=none;fillColor=none;html=1;fontSize=24;fontStyle=1;verticalAlign=middle;align=center;" parent="1" vertex="1">
                    <mxGeometry x="-340" y="390" width="120" height="45" as="geometry"/>
                </mxCell>
                <mxCell id="3Jfq89YbCW_ejPzD94Lu-14" value="Texto" style="text;html=1;align=center;verticalAlign=middle;whiteSpace=wrap;rounded=0;" parent="1" vertex="1">
                    <mxGeometry x="-465" y="410" width="300" height="110" as="geometry"/>
                </mxCell>
                <mxCell id="3Jfq89YbCW_ejPzD94Lu-15" value="Tecnologias que domino" style="text;strokeColor=none;fillColor=none;html=1;fontSize=24;fontStyle=1;verticalAlign=middle;align=center;" parent="1" vertex="1">
                    <mxGeometry x="-362.5" y="530" width="310" height="50" as="geometry"/>
                </mxCell>
                <mxCell id="3Jfq89YbCW_ejPzD94Lu-16" value="Texto" style="text;html=1;align=center;verticalAlign=middle;whiteSpace=wrap;rounded=0;" parent="1" vertex="1">
                    <mxGeometry x="-505" y="580" width="380" height="130" as="geometry"/>
                </mxCell>
                <mxCell id="3Jfq89YbCW_ejPzD94Lu-17" value="Histórico escolar" style="text;strokeColor=none;fillColor=none;html=1;fontSize=24;fontStyle=1;verticalAlign=middle;align=center;" parent="1" vertex="1">
                    <mxGeometry x="-380" y="700" width="260" height="60" as="geometry"/>
                </mxCell>
                <mxCell id="3Jfq89YbCW_ejPzD94Lu-18" value="Texto" style="text;html=1;align=center;verticalAlign=middle;whiteSpace=wrap;rounded=0;" parent="1" vertex="1">
                    <mxGeometry x="-437.5" y="770" width="245" height="70" as="geometry"/>
                </mxCell>
                <mxCell id="3Jfq89YbCW_ejPzD94Lu-19" value="Pontos negativos" style="text;strokeColor=none;fillColor=none;html=1;fontSize=24;fontStyle=1;verticalAlign=middle;align=center;" parent="1" vertex="1">
                    <mxGeometry x="-350" y="880" width="215" height="70" as="geometry"/>
                </mxCell>
                <mxCell id="3Jfq89YbCW_ejPzD94Lu-20" value="Texto" style="text;html=1;align=center;verticalAlign=middle;whiteSpace=wrap;rounded=0;" parent="1" vertex="1">
                    <mxGeometry x="-405" y="950" width="180" height="70" as="geometry"/>
                </mxCell>
                <mxCell id="3Jfq89YbCW_ejPzD94Lu-21" value="Contatos" style="text;strokeColor=none;fillColor=none;html=1;fontSize=24;fontStyle=1;verticalAlign=middle;align=center;" parent="1" vertex="1">
                    <mxGeometry x="-340" y="1020" width="100" height="40" as="geometry"/>
                </mxCell>
                <mxCell id="3Jfq89YbCW_ejPzD94Lu-22" value="Texto" style="text;html=1;align=center;verticalAlign=middle;whiteSpace=wrap;rounded=0;" parent="1" vertex="1">
                    <mxGeometry x="-412.5" y="1050" width="195" height="80" as="geometry"/>
                </mxCell>
                <mxCell id="3Jfq89YbCW_ejPzD94Lu-23" value="Redes Sociais" style="text;strokeColor=none;fillColor=none;html=1;fontSize=24;fontStyle=1;verticalAlign=middle;align=center;" parent="1" vertex="1">
                    <mxGeometry x="-355" y="1169" width="190" height="51" as="geometry"/>
                </mxCell>
                <mxCell id="3Jfq89YbCW_ejPzD94Lu-24" value="ícones das redes sociais" style="text;html=1;align=center;verticalAlign=middle;whiteSpace=wrap;rounded=0;" parent="1" vertex="1">
                    <mxGeometry x="-362.5" y="1220" width="180" height="70" as="geometry"/>
                </mxCell>
                <mxCell id="3Jfq89YbCW_ejPzD94Lu-25" value="Fale comigo:" style="text;strokeColor=none;fillColor=none;html=1;fontSize=24;fontStyle=1;verticalAlign=middle;align=center;" parent="1" vertex="1">
                    <mxGeometry x="-380" y="1290" width="215" height="60" as="geometry"/>
                </mxCell>
                <mxCell id="3Jfq89YbCW_ejPzD94Lu-26" value="Email:" style="text;html=1;align=center;verticalAlign=middle;whiteSpace=wrap;rounded=0;" parent="1" vertex="1">
                    <mxGeometry x="-450" y="1310" width="247.5" height="160" as="geometry"/>
                </mxCell>
                <mxCell id="3Jfq89YbCW_ejPzD94Lu-29" value="texto" style="rounded=1;whiteSpace=wrap;html=1;" parent="1" vertex="1">
                    <mxGeometry x="-345" y="1400" width="110" height="20" as="geometry"/>
                </mxCell>
                <mxCell id="3Jfq89YbCW_ejPzD94Lu-30" value="Mensagem:" style="text;html=1;align=center;verticalAlign=middle;whiteSpace=wrap;rounded=0;" parent="1" vertex="1">
                    <mxGeometry x="-405" y="1420" width="180" height="80" as="geometry"/>
                </mxCell>
                <mxCell id="3Jfq89YbCW_ejPzD94Lu-31" value="texto" style="rounded=1;whiteSpace=wrap;html=1;" parent="1" vertex="1">
                    <mxGeometry x="-345" y="1470" width="110" height="20" as="geometry"/>
                </mxCell>
                <mxCell id="3Jfq89YbCW_ejPzD94Lu-33" value="seletor de datas" style="rounded=1;whiteSpace=wrap;html=1;" parent="1" vertex="1">
                    <mxGeometry x="-345" y="1540" width="115" height="20" as="geometry"/>
                </mxCell>
                <mxCell id="3Jfq89YbCW_ejPzD94Lu-34" value="Data de nascimento:" style="text;html=1;align=center;verticalAlign=middle;whiteSpace=wrap;rounded=0;" parent="1" vertex="1">
                    <mxGeometry x="-347.5" y="1510" width="117.5" height="30" as="geometry"/>
                </mxCell>
                <mxCell id="3Jfq89YbCW_ejPzD94Lu-35" value="Envie sua foto!" style="text;html=1;align=center;verticalAlign=middle;whiteSpace=wrap;rounded=0;" parent="1" vertex="1">
                    <mxGeometry x="-350" y="1590" width="95" height="30" as="geometry"/>
                </mxCell>
                <mxCell id="3Jfq89YbCW_ejPzD94Lu-36" value="Escolher arquivo" style="rounded=1;whiteSpace=wrap;html=1;" parent="1" vertex="1">
                    <mxGeometry x="-345" y="1620" width="97" height="20" as="geometry"/>
                </mxCell>
                <mxCell id="3Jfq89YbCW_ejPzD94Lu-37" value="Enviar" style="rounded=0;whiteSpace=wrap;html=1;" parent="1" vertex="1">
                    <mxGeometry x="-345" y="1650" width="69" height="20" as="geometry"/>
                </mxCell>
                <mxCell id="3Jfq89YbCW_ejPzD94Lu-38" value="Experiências" style="text;strokeColor=none;fillColor=none;html=1;fontSize=24;fontStyle=1;verticalAlign=middle;align=center;" parent="1" vertex="1">
                    <mxGeometry x="-345" y="1690" width="150" height="50" as="geometry"/>
                </mxCell>
                <mxCell id="3Jfq89YbCW_ejPzD94Lu-39" value="Tabela" style="rounded=0;whiteSpace=wrap;html=1;" parent="1" vertex="1">
                    <mxGeometry x="-345" y="1740" width="545" height="140" as="geometry"/>
                </mxCell>
            </root>
        </mxGraphModel>
    </diagram>
</mxfile>